<?xml version="1.0" encoding="UTF-8"?>
<svg id="Layer_1" xmlns="http://www.w3.org/2000/svg" version="1.1" viewBox="0 0 91.55 123.17">
  <!-- Generator: Adobe Illustrator 30.5.0, SVG Export Plug-In . SVG Version: 2.1.4 Build 167)  -->
  <defs>
    <style>
      .st0 {
        fill: #3d4a2e;
      }

      .st1 {
        fill: #c8860a;
      }
    </style>
  </defs>
  <g>
    <polygon class="st1" points="34.75 115.48 34.75 108.13 15.75 96.76 15.75 104.1 2.29 96.05 15.75 71.78 15.75 80.33 34.75 91.7 34.75 37.5 46.06 17.1 46.12 122.29 34.75 115.48"/>
    <path d="M45.56,19.03l.06,102.38-10.37-6.21v-7.35l-.49-.29-18-10.78-1.51-.91v7.35l-12.28-7.35,12.28-22.16v6.9l.49.29,18,10.78,1.51.91v-54.95s10.31-18.6,10.31-18.6M46.56,15.17l-12.31,22.2v53.45s-18-10.78-18-10.78v-10.2L1.62,96.23l14.62,8.76v-7.35l18,10.78v7.35l12.38,7.41-.07-108h0Z"/>
  </g>
  <g>
    <path class="st0" d="M47.11,17.1l43.76,78.95-14.69,8.79v-12.59l-19,11.38v12.59l-10.14,6.07.07-105.19ZM56.38,91.05l17.84-10.68-17.81-32.13-.03,42.81Z"/>
    <path d="M47.61,19.03l42.59,76.84-13.52,8.09v-10.82s0-1.76,0-1.76l-1.51.91-18,10.78-.49.29v12.59l-9.14,5.47.06-102.38M55.88,91.93l1.51-.91,16.67-9.98.83-.5-.47-.85-16.64-30.02-1.87-3.38v3.86s-.03,40-.03,40v1.76M46.61,15.17l-.07,108,11.14-6.67v-12.59l18-10.78v12.59s15.86-9.5,15.86-9.5L46.61,15.17h0ZM56.88,90.17l.02-40,16.64,30.02-16.67,9.98h0Z"/>
  </g>
</svg>