<?xml version="1.0" encoding="UTF-8"?>
<svg id="Layer_1" xmlns="http://www.w3.org/2000/svg" version="1.1" viewBox="0 0 80.77 52.02">
  <!-- Generator: Adobe Illustrator 30.5.0, SVG Export Plug-In . SVG Version: 2.1.4 Build 167)  -->
  <defs>
    <style>
      .st0 {
        font-size: 12.14px;
        letter-spacing: 0em;
      }

      .st1 {
        font-family: HeadlineGothicATF, 'Headline Gothic ATF';
      }

      .st2 {
        fill: #3d4a2e;
        font-size: 16px;
        letter-spacing: 0em;
      }

      .st3 {
        fill: #c8860a;
        font-size: 24px;
        letter-spacing: 0em;
      }
    </style>
  </defs>
  <path d="M78.49,7.08c-.68-.75-1.93-1.65-4.04-1.65-.23,0-.47.01-.72.03-.76.07-1.48.24-2.14.5l-2.77.24-7.78.68-2.09.18-.03.31c-.61-.22-1.35-.36-2.25-.36-.26,0-.53.01-.81.04-.99.09-1.91.33-2.73.7l.02-.18-3.01.26-2.07.18h0s-3.01.26-3.01.26l-3.27.29-2.12.19-.02.27c-.59-.22-1.28-.36-2.12-.36-.23,0-.47.01-.72.03-.76.07-1.48.24-2.14.5l-2.77.24-7.78.68-2.09.18-.03.31c-.61-.22-1.35-.36-2.25-.36-.26,0-.53.01-.81.04-.99.09-1.91.33-2.73.7l.02-.18-3.01.26-2.07.18h0s-3.01.26-3.01.26l-3.27.29-2.12.19-.16,2.12-.13,1.74-1.18,13.57-.17,1.71-.3,3,3.01-.26,3.27-.29,2.12-.19h0s2.96-.26,2.96-.26l2.12-.19.04-.53c.68.31,1.56.54,2.69.54.27,0,.54-.01.82-.04,1.11-.1,2.09-.39,2.95-.82l-3.24,10.97-1.04,3.52,3.65-.32,2.06-.18.59-.05,1.77-.15,2.18-.19.71-.06h0s1.89-.17,1.89-.17h0s.36-.03.36-.03l1.76-.15h0s1.17-.1,1.17-.1l1-.09.44-.04,2.14-.19,1.61-.14c.3.06.63.1.98.1.17,0,.35,0,.54-.02,1.2-.11,2.24-.53,3.09-1.2.6.37,1.43.66,2.58.66.2,0,.41,0,.62-.03.6-.05,1.11-.17,1.57-.33l2.26-.2,2.18-.19,2.12-.19h0s1.85-.16,1.85-.16l2.18-.19,2.12-.18.16-2.12.08-1.16.54-6.18,1.5-.13.18-2.09.17-1.93.04-.45,2.93-.26,2.12-.19.11-1.52c.76.72,2,1.45,3.92,1.45.23,0,.46-.01.7-.03,3.9-.34,6.55-3.26,6.93-7.62.21-2.46-.4-4.1-1.29-5.26l1.63-.14.22-2.05c.28-2.71-.17-4.68-1.38-6.03Z"/>
  <text class="st1" transform="translate(2.9 30.79) rotate(-5) scale(.99) skewX(-9.89)"><tspan class="st3" x="0" y="0">HOTSHOTS</tspan><tspan class="st0" x="74.68" y="0"> </tspan><tspan class="st2"><tspan x="18.63" y="14">AIRSOFT</tspan></tspan></text>
</svg>